# xmcd CD database file
#
# Track frame offsets:
#	150
#	12465
#	27795
#	41387
#	55222
#	69222
#	85927
#	102032
#	114585
#	133382
#	145860
#	157570
#	170995
#	180845
#	197832
#	210285
#
# Disc length: 3014 seconds
#
# Revision: 0
# Processed by: cddbd v1.5.1PL0 Copyright (c) Steve Scherf et al.
# Submitted via: CDex 1.50beta10
#
DISCID=cc0bc410
DTITLE=Ray Kernaghan - Jet Set Country
DYEAR=1900
DGENRE=Country
TTITLE0=Midnight Lady
TTITLE1=The Convict and The Rose
TTITLE2=If Those Lips Could Only Speak
TTITLE3=Fraulein
TTITLE4=The Ballad Of Jim Blynn
TTITLE5=Matilda, Queen Of The Tar
TTITLE6=The Soldier's Last Letter
TTITLE7=The Wild Side Of Life
TTITLE8=Can I Sleep In Your Barn Tonight Mister
TTITLE9=Annie Johnson
TTITLE10=Turn Me On
TTITLE11=Checkerboard
TTITLE12=The Ettamogah Pub
TTITLE13=When The Rain Tumbles Down In July
TTITLE14=Lonesome Whistle
TTITLE15=Maggie
EXTD=
EXTT0=
EXTT1=
EXTT2=
EXTT3=
EXTT4=
EXTT5=
EXTT6=
EXTT7=
EXTT8=
EXTT9=
EXTT10=
EXTT11=
EXTT12=
EXTT13=
EXTT14=
EXTT15=
PLAYORDER=
